<svg width="47" height="57" viewBox="0 0 47 57" fill="none" xmlns="http://www.w3.org/2000/svg">
<path d="M21.4756 17.1728L17.2275 18.8935L18.9482 23.1416L23.1963 21.4209L21.4756 17.1728ZM24.9169 25.669L20.6688 27.3897L25.8308 40.1339L30.0789 38.4133L24.9169 25.669ZM24.8098 0.987228L3.56938 9.5905C1.23293 10.5369 0.0955837 13.2228 1.04194 15.5593L16.5278 53.7921C17.4742 56.1285 20.1601 57.2659 22.4966 56.3195L43.737 47.7163C46.0735 46.7699 47.2109 44.084 46.2645 41.7475L30.7786 3.51467C29.8322 1.17821 27.1463 0.040868 24.8098 0.987228ZM40.2957 39.2201L19.0553 47.8233L7.01069 18.0867L28.2512 9.48341L40.2957 39.2201Z" fill="#353535"/>
</svg>
