<svg width="72" height="72" viewBox="0 0 72 72" fill="none" xmlns="http://www.w3.org/2000/svg">
<path d="M44.9895 13.156C40.5085 11.341 35.5899 10.8955 30.8557 11.8759C26.1215 12.8563 21.7843 15.2185 18.3926 18.6639C15.001 22.1093 12.7071 26.483 11.8012 31.232C10.8953 35.981 11.418 40.892 13.3031 45.344C15.1883 49.796 18.3513 53.589 22.3921 56.2433C26.433 58.8976 31.1702 60.2941 36.0047 60.2561C40.8392 60.2182 45.5539 58.7475 49.5525 56.03C53.5512 53.3125 56.6542 49.4703 58.4692 44.9893C60.903 38.9804 60.8502 32.2508 58.3222 26.2809C55.7943 20.311 50.9984 15.5898 44.9895 13.156ZM18.9123 30.6154L15.4855 29.2274C15.6748 28.7601 15.7932 28.2642 15.9883 27.7827C16.1833 27.3013 16.3725 26.834 16.6326 26.3954L20.0594 27.7834L18.9123 30.6154ZM42.3977 15.4853C42.865 15.6745 43.361 15.793 43.8424 15.988C44.3239 16.183 44.7912 16.3723 45.2298 16.6324L43.8418 20.0592L41.0097 18.9121L42.3977 15.4853ZM29.2277 56.1396C28.7604 55.9504 28.2644 55.8319 27.783 55.6369C27.3015 55.4419 26.8342 55.2526 26.3956 54.9925L27.7836 51.5657L30.6157 52.7128L29.2277 56.1396ZM43.7563 52.8266C43.5839 52.9179 43.3864 52.9507 43.1937 52.9202C43.001 52.8897 42.8233 52.7975 42.6875 52.6574L31.2616 37.8921L28.6097 19.4115C28.5252 18.6026 29.7928 18.0775 30.3093 18.7153L41.3629 33.6265L44.3787 51.9413C44.3847 52.1363 44.3273 52.3281 44.2151 52.4877C44.1029 52.6474 43.9419 52.7663 43.7563 52.8266ZM51.566 43.8415L52.7131 41.0095L56.1399 42.3975C55.9506 42.8648 55.8321 43.3607 55.6371 43.8422C55.4421 44.3236 55.2528 44.7909 54.9928 45.2295L51.566 43.8415Z" fill="#353535"/>
<path d="M33.2967 37.0186L41.4951 47.625L39.3194 34.48L33.2967 37.0186Z" fill="#353535"/>
</svg>
