<svg width="73" height="73" viewBox="0 0 73 73" fill="none" xmlns="http://www.w3.org/2000/svg">
<path d="M51.3933 37.0154L26.0733 47.7462L21.2103 59.7631L6.90253 26.0032C6.66537 25.4436 6.66022 24.8127 6.88822 24.2493C7.11622 23.6859 7.55869 23.2361 8.1183 22.999L39.7682 9.58546C40.3278 9.3483 40.9587 9.34315 41.5222 9.57115C42.0855 9.79915 42.5353 10.2416 42.7725 10.8012L52.609 34.0112C52.8462 34.5708 52.8513 35.2017 52.6233 35.7651C52.3953 36.3285 51.9529 36.7782 51.3933 37.0154ZM56.5778 19.8843L69.0971 49.4242L57.0802 44.5612L33.8702 54.3977C33.3106 54.6349 32.6797 54.64 32.1163 54.412C31.5529 54.184 31.1032 53.7416 30.866 53.182L29.9718 51.072L59.5117 38.5527L51.4636 19.5627L53.5736 18.6685C54.1332 18.4313 54.7641 18.4262 55.3275 18.6542C55.8909 18.8822 56.3407 19.3247 56.5778 19.8843ZM20.8576 22.5779C19.0219 23.3559 17.7238 24.4038 16.9331 25.7096C16.2026 27.0397 16.1637 28.4749 16.8912 30.1329L16.9392 30.1872L21.0115 28.4613C20.7643 27.8194 20.7485 27.2536 20.9852 26.7551C21.2386 26.2655 21.66 25.8836 22.1722 25.6796C22.8263 25.4024 23.4643 25.3809 24.005 25.5997C24.5547 25.8396 24.9561 26.3167 25.2243 26.9497C25.5105 27.6249 25.6042 28.2572 25.4723 28.8856C25.3826 29.4961 25.1183 30.1058 24.7128 30.6759C23.9407 31.8494 23.4705 32.7954 23.311 33.535C23.1215 34.2624 23.265 35.247 23.7121 36.302L27.9321 34.5135C27.6549 33.8594 27.5158 33.2962 27.5447 32.8359C27.5736 32.3756 27.7714 31.8438 28.1558 31.2826C28.8907 30.3738 29.4121 29.4311 29.6663 28.3277C29.9205 27.2244 29.8703 26.2252 29.4232 25.1702C28.7436 23.5666 27.6284 22.5209 26.0866 22.0543C24.5659 21.5788 22.8199 21.7462 20.8576 22.5779ZM24.6064 38.412L26.3948 42.632L30.6148 40.8435L28.8264 36.6235L24.6064 38.412ZM39.0548 37.2666L43.2748 35.4781L41.4863 31.2581L37.2664 33.0466L39.0548 37.2666ZM31.0067 18.2766L36.3721 30.9366L40.5921 29.1481L35.2267 16.4882L31.0067 18.2766Z" fill="black"/>
</svg>
