<svg width="73" height="73" viewBox="0 0 73 73" fill="none" xmlns="http://www.w3.org/2000/svg">
<g clip-path="url(#clip0_92_5)">
<path d="M34.4756 25.1728L30.2275 26.8935L31.9482 31.1416L36.1963 29.4209L34.4756 25.1728ZM37.9169 33.669L33.6688 35.3897L38.8308 48.1339L43.0789 46.4133L37.9169 33.669ZM37.8098 8.98723L16.5694 17.5905C14.2329 18.5369 13.0956 21.2228 14.0419 23.5593L29.5278 61.7921C30.4742 64.1285 33.1601 65.2659 35.4966 64.3195L56.737 55.7163C59.0735 54.7699 60.2109 52.084 59.2645 49.7475L43.7786 11.5147C42.8322 9.17821 40.1463 8.04087 37.8098 8.98723ZM53.2957 47.2201L32.0553 55.8233L20.0107 26.0867L41.2512 17.4834L53.2957 47.2201Z" fill="black"/>
</g>
<defs>
<clipPath id="clip0_92_5">
<rect width="55" height="55" fill="white" transform="translate(0.84082 21.4888) rotate(-22.05)"/>
</clipPath>
</defs>
</svg>
