<svg width="480" height="588" viewBox="0 0 480 588" fill="none" xmlns="http://www.w3.org/2000/svg">
<path d="M491.964 394.475L-8.31 581.877L-8.46469 195.012L491.964 394.475Z" fill="#E4FBFF"/>
<path d="M-8.46469 195.012L488.342 393.035L488.187 6.1702L-8.46469 195.012Z" fill="#FFEBFB"/>
<path d="M-1.57487 195.067L485.689 9.79485L485.841 389.343L-1.57487 195.067ZM-5.81146 578.271L-5.96322 198.701L485.026 394.404L-5.81146 578.271Z" stroke="#FAE8CD" stroke-width="5"/>
<g clip-path="url(#clip0_333_6)">
<path d="M158.476 114.173L154.228 115.893L155.948 120.141L160.196 118.421L158.476 114.173ZM161.917 122.669L157.669 124.39L162.831 137.134L167.079 135.413L161.917 122.669ZM161.81 97.9871L140.569 106.59C138.233 107.537 137.096 110.223 138.042 112.559L153.528 150.792C154.474 153.128 157.16 154.266 159.497 153.319L180.737 144.716C183.074 143.77 184.211 141.084 183.264 138.747L167.779 100.515C166.832 98.1781 164.146 97.0407 161.81 97.9871ZM177.296 136.22L156.055 144.823L144.011 115.087L165.251 106.483L177.296 136.22Z" fill="#353535"/>
</g>
<path d="M199.566 116.411C198.113 116.999 196.64 117.199 195.148 117.009C193.655 116.82 192.31 116.268 191.111 115.355C189.907 114.428 188.996 113.2 188.377 111.673C187.764 110.16 187.57 108.659 187.796 107.169C188.015 105.665 188.595 104.326 189.534 103.151C190.474 101.976 191.671 101.094 193.124 100.506C194.592 99.9112 196.065 99.7117 197.542 99.9073C199.035 100.097 200.376 100.659 201.565 101.592C202.764 102.505 203.669 103.718 204.282 105.231C204.9 106.758 205.1 108.274 204.881 109.778C204.67 111.262 204.095 112.591 203.156 113.766C202.216 114.94 201.019 115.822 199.566 116.411ZM198.44 113.63C199.374 113.252 200.113 112.711 200.657 112.007C201.194 111.289 201.504 110.456 201.586 109.507C201.668 108.559 201.499 107.566 201.079 106.528C200.658 105.49 200.091 104.666 199.379 104.057C198.66 103.434 197.861 103.058 196.981 102.931C196.101 102.804 195.193 102.93 194.259 103.309C193.325 103.687 192.578 104.231 192.02 104.941C191.476 105.644 191.164 106.47 191.081 107.418C190.993 108.351 191.16 109.337 191.58 110.375C192.001 111.413 192.57 112.244 193.289 112.868C194.008 113.492 194.81 113.875 195.696 114.016C196.591 114.137 197.505 114.009 198.44 113.63ZM212.639 96.382C214.107 95.7873 215.483 95.7739 216.766 96.3418C218.043 96.8948 219.018 98.0018 219.69 99.6627L222.618 106.892L219.504 108.154L216.747 101.347C216.351 100.368 215.803 99.7182 215.103 99.3974C214.398 99.0618 213.622 99.0651 212.777 99.4075C211.917 99.7559 211.343 100.299 211.055 101.037C210.775 101.754 210.834 102.602 211.231 103.581L213.988 110.388L210.873 111.649L205.882 99.326L208.996 98.0646L209.618 99.5995C209.817 98.8974 210.175 98.2689 210.693 97.7141C211.219 97.1384 211.868 96.6943 212.639 96.382ZM229.098 88.2135C228.549 88.4357 228.021 88.4514 227.512 88.2604C227.012 88.0487 226.656 87.6833 226.446 87.1643C226.236 86.6452 226.24 86.1431 226.458 85.6578C226.684 85.1518 227.072 84.7876 227.62 84.5653C228.169 84.3431 228.694 84.3379 229.194 84.5496C229.702 84.7405 230.062 85.0955 230.272 85.6145C230.483 86.1336 230.474 86.6461 230.248 87.1522C230.03 87.6375 229.647 87.9912 229.098 88.2135ZM231.228 89.0599L236.219 101.383L233.105 102.645L228.113 90.3213L231.228 89.0599ZM242.174 84.4191C243.642 83.8245 245.017 83.8111 246.3 84.3789C247.577 84.932 248.552 86.039 249.225 87.6999L252.153 94.9294L249.039 96.1908L246.282 89.3839C245.886 88.4052 245.338 87.7554 244.638 87.4346C243.932 87.0989 243.157 87.1023 242.312 87.4446C241.451 87.793 240.877 88.3363 240.589 89.0744C240.31 89.7916 240.369 90.6396 240.765 91.6184L243.522 98.4252L240.408 99.6866L235.417 87.3631L238.531 86.1017L239.153 87.6366C239.352 86.9346 239.71 86.3061 240.227 85.7512C240.754 85.1755 241.403 84.7315 242.174 84.4191ZM257.922 81.2254L255.764 82.0994L259.719 91.8648L256.561 93.1442L252.605 83.3788L251.204 83.9465L250.168 81.3883L251.569 80.8207L251.317 80.1979C250.704 78.6852 250.684 77.3988 251.256 76.3386C251.827 75.2784 252.99 74.4191 254.743 73.7608L255.806 76.3857C255.044 76.6772 254.568 77.0165 254.38 77.4036C254.191 77.7906 254.238 78.3327 254.521 79.0297L254.728 79.5413L256.886 78.6673L257.922 81.2254ZM270.561 87.7066C269.374 88.1871 268.202 88.3601 267.042 88.2255C265.877 88.076 264.825 87.6305 263.886 86.8888C262.961 86.1411 262.244 85.137 261.733 83.8765C261.223 82.6159 261.047 81.3926 261.205 80.2064C261.378 79.0142 261.841 77.9634 262.595 77.0539C263.343 76.1296 264.31 75.4272 265.496 74.9467C266.682 74.4662 267.866 74.2976 269.046 74.441C270.22 74.5697 271.277 75.0048 272.216 75.7465C273.17 76.4822 273.902 77.4803 274.413 78.7408C274.923 80.0013 275.085 81.2307 274.897 82.4289C274.724 83.621 274.256 84.6823 273.493 85.6126C272.739 86.5221 271.762 87.2201 270.561 87.7066ZM269.462 84.9928C270.025 84.7645 270.498 84.4178 270.879 83.9527C271.269 83.4667 271.501 82.8893 271.575 82.2204C271.65 81.5516 271.528 80.8242 271.209 80.0382C270.735 78.8667 270.06 78.0956 269.185 77.725C268.319 77.3336 267.441 77.3181 266.551 77.6785C265.661 78.0389 265.041 78.6611 264.692 79.5451C264.351 80.4082 264.417 81.4255 264.892 82.5971C265.367 83.7686 266.022 84.5561 266.859 84.9595C267.704 85.3421 268.572 85.3532 269.462 84.9928ZM279.203 71.8549C279.339 71.0402 279.651 70.3184 280.138 69.6893C280.64 69.0543 281.307 68.5686 282.137 68.2322L283.462 71.5022L282.639 71.8355C281.66 72.232 281.012 72.7622 280.694 73.4261C280.39 74.0841 280.47 74.984 280.933 76.1259L283.419 82.2654L280.305 83.5267L275.314 71.2033L278.428 69.9419L279.203 71.8549ZM300.651 60.7332C302.164 60.1206 303.569 60.0952 304.867 60.657C306.174 61.198 307.163 62.299 307.836 63.9599L310.764 71.1894L307.65 72.4508L304.893 65.644C304.503 64.68 303.961 64.0451 303.267 63.7391C302.567 63.4183 301.795 63.4291 300.95 63.7714C300.104 64.1138 299.535 64.6466 299.241 65.3699C298.956 66.0723 299.008 66.9055 299.399 67.8694L302.156 74.6763L299.042 75.9377L296.285 69.1308C295.894 68.1669 295.352 67.5319 294.658 67.226C293.959 66.9051 293.186 66.9159 292.341 67.2583C291.481 67.6067 290.904 68.1425 290.61 68.8658C290.325 69.5682 290.377 70.4014 290.768 71.3653L293.525 78.1721L290.411 79.4335L285.419 67.1101L288.533 65.8487L289.137 67.339C289.327 66.6578 289.674 66.0428 290.176 65.4939C290.694 64.939 291.331 64.5084 292.087 64.2021C293.051 63.8116 293.995 63.6709 294.92 63.7798C295.838 63.8738 296.658 64.2149 297.38 64.8031C297.492 63.9291 297.839 63.1239 298.421 62.3874C299.018 61.645 299.762 61.0936 300.651 60.7332ZM323.684 58.4731C323.864 58.918 323.997 59.3304 324.082 59.7104L315.072 63.3594C315.507 64.2192 316.101 64.79 316.854 65.072C317.607 65.3539 318.383 65.3327 319.184 65.0084C320.341 64.5399 320.963 63.7097 321.05 62.5179L324.409 61.1574C324.533 62.4879 324.248 63.743 323.552 64.9226C322.849 66.0873 321.764 66.9671 320.296 67.5617C319.11 68.0422 317.937 68.2152 316.778 68.0806C315.627 67.9251 314.59 67.4736 313.665 66.7259C312.756 65.9722 312.046 64.9651 311.535 63.7045C311.019 62.4292 310.825 61.2044 310.953 60.0303C311.082 58.8561 311.508 57.8203 312.232 56.9228C312.956 56.0254 313.926 55.3304 315.142 54.8378C316.314 54.3633 317.462 54.1919 318.585 54.3237C319.724 54.4495 320.734 54.8774 321.617 55.6075C322.508 56.3167 323.197 57.2719 323.684 58.4731ZM320.098 58.8898C319.759 58.095 319.211 57.5744 318.456 57.3281C317.694 57.067 316.905 57.1016 316.09 57.432C315.319 57.7443 314.762 58.2459 314.42 58.9367C314.088 59.6067 314.03 60.3809 314.248 61.2594L320.098 58.8898ZM333.715 43.5087L337.711 54.397L335.086 55.4602L330.356 44.8692L333.715 43.5087ZM338.574 60.1068C338.01 60.3351 337.474 60.3537 336.965 60.1628C336.465 59.9511 336.11 59.5857 335.9 59.0666C335.689 58.5476 335.693 58.0454 335.911 57.5602C336.137 57.0541 336.532 56.687 337.096 56.4587C337.645 56.2365 338.169 56.2312 338.669 56.443C339.163 56.6399 339.515 56.9979 339.726 57.5169C339.936 58.0359 339.935 58.5455 339.723 59.0456C339.506 59.5308 339.122 59.8846 338.574 60.1068Z" fill="#353535"/>
<path d="M155.679 250.795C154.225 250.206 153.029 249.324 152.089 248.149C151.15 246.975 150.567 245.642 150.342 244.153C150.123 242.648 150.323 241.133 150.942 239.605C151.554 238.093 152.46 236.88 153.658 235.967C154.863 235.04 156.211 234.481 157.704 234.291C159.196 234.102 160.669 234.302 162.122 234.89C163.59 235.485 164.787 236.367 165.711 237.536C166.651 238.71 167.223 240.047 167.427 241.545C167.653 243.035 167.459 244.536 166.846 246.049C166.227 247.576 165.316 248.804 164.111 249.731C162.927 250.65 161.589 251.204 160.097 251.394C158.605 251.583 157.132 251.383 155.679 250.795ZM156.805 248.014C157.739 248.393 158.647 248.519 159.527 248.392C160.413 248.25 161.215 247.867 161.934 247.244C162.653 246.62 163.222 245.789 163.643 244.751C164.063 243.713 164.23 242.727 164.142 241.794C164.06 240.846 163.747 240.02 163.203 239.316C162.66 238.613 161.921 238.072 160.987 237.693C160.052 237.315 159.138 237.186 158.243 237.307C157.363 237.433 156.564 237.809 155.845 238.432C155.132 239.041 154.565 239.865 154.145 240.903C153.724 241.941 153.555 242.934 153.637 243.882C153.719 244.83 154.029 245.664 154.566 246.382C155.125 247.092 155.871 247.636 156.805 248.014ZM179.005 245.511C180.473 246.106 181.471 247.054 181.997 248.354C182.529 249.64 182.458 251.114 181.785 252.774L178.857 260.004L175.742 258.742L178.5 251.935C178.897 250.957 178.955 250.109 178.676 249.391C178.403 248.659 177.844 248.122 176.999 247.78C176.139 247.431 175.348 247.422 174.628 247.751C173.928 248.072 173.38 248.722 172.984 249.7L170.226 256.507L167.112 255.245L172.104 242.922L175.219 244.184L174.597 245.719C175.228 245.353 175.923 245.151 176.681 245.113C177.459 245.066 178.234 245.199 179.005 245.511ZM199.243 253.684C200.163 254.057 200.896 254.569 201.442 255.223C201.995 255.861 202.355 256.55 202.521 257.291L203.233 255.534L206.369 256.804L201.341 269.216C200.878 270.358 200.237 271.281 199.416 271.984C198.59 272.703 197.612 273.135 196.483 273.282C195.347 273.443 194.127 273.259 192.822 272.731C191.072 272.022 189.798 271.031 189.002 269.759C188.22 268.493 188.04 267.125 188.463 265.656L191.555 266.909C191.49 267.539 191.658 268.125 192.06 268.667C192.47 269.231 193.061 269.668 193.832 269.981C194.737 270.347 195.582 270.37 196.368 270.05C197.147 269.744 197.76 269.043 198.204 267.946L198.979 266.033C198.344 266.449 197.593 266.705 196.725 266.803C195.872 266.906 194.993 266.774 194.088 266.408C193.05 265.987 192.209 265.336 191.566 264.453C190.922 263.571 190.543 262.546 190.429 261.378C190.337 260.201 190.545 258.982 191.056 257.721C191.561 256.476 192.253 255.47 193.133 254.704C194.028 253.945 195.003 253.477 196.058 253.3C197.129 253.13 198.19 253.258 199.243 253.684ZM200.736 261.695C201.043 260.939 201.156 260.234 201.076 259.58C201.001 258.911 200.769 258.333 200.379 257.847C199.995 257.346 199.514 256.979 198.936 256.745C198.357 256.51 197.766 256.435 197.163 256.518C196.559 256.602 195.991 256.855 195.457 257.277C194.944 257.691 194.537 258.269 194.237 259.01C193.937 259.752 193.821 260.464 193.889 261.148C193.978 261.823 194.207 262.408 194.576 262.902C194.96 263.403 195.434 263.768 195.998 263.996C196.576 264.23 197.174 264.309 197.793 264.231C198.417 264.139 198.986 263.886 199.499 263.472C200.017 263.044 200.43 262.451 200.736 261.695ZM222.156 263.2L217.164 275.523L214.027 274.253L214.658 272.695C214.042 273.067 213.344 273.276 212.565 273.324C211.807 273.362 211.05 273.228 210.294 272.921C209.33 272.531 208.559 271.985 207.979 271.284C207.406 270.569 207.064 269.731 206.952 268.771C206.861 267.802 207.038 266.769 207.483 265.671L210.412 258.442L213.526 259.704L210.777 266.488C210.381 267.467 210.319 268.322 210.592 269.054C210.871 269.771 211.433 270.301 212.278 270.644C213.139 270.992 213.918 271.006 214.618 270.685C215.324 270.35 215.875 269.693 216.271 268.714L219.02 261.929L222.156 263.2ZM228.515 264.067C227.966 263.845 227.576 263.488 227.343 262.997C227.132 262.497 227.131 261.987 227.341 261.468C227.551 260.949 227.904 260.591 228.398 260.394C228.913 260.189 229.444 260.197 229.993 260.419C230.542 260.642 230.922 261.003 231.134 261.503C231.366 261.994 231.377 262.499 231.167 263.018C230.957 263.537 230.594 263.9 230.079 264.105C229.585 264.302 229.064 264.29 228.515 264.067ZM229.455 266.157L224.463 278.48L221.349 277.219L226.341 264.896L229.455 266.157ZM230.365 273.647C230.87 272.401 231.562 271.396 232.442 270.63C233.337 269.87 234.319 269.405 235.39 269.235C236.46 269.064 237.522 269.192 238.574 269.619C239.375 269.943 240.067 270.43 240.649 271.081C241.238 271.716 241.63 272.41 241.826 273.163L244.196 267.313L247.354 268.592L240.686 285.053L237.527 283.773L238.266 281.949C237.634 282.401 236.895 282.671 236.047 282.759C235.2 282.848 234.317 282.706 233.397 282.333C232.359 281.913 231.518 281.261 230.875 280.379C230.231 279.497 229.852 278.471 229.738 277.303C229.646 276.126 229.854 274.907 230.365 273.647ZM240.045 277.621C240.352 276.864 240.465 276.159 240.385 275.505C240.31 274.836 240.078 274.259 239.688 273.773C239.304 273.272 238.823 272.904 238.245 272.67C237.666 272.436 237.075 272.36 236.472 272.444C235.868 272.527 235.3 272.78 234.766 273.203C234.253 273.617 233.846 274.194 233.546 274.936C233.246 275.677 233.13 276.39 233.198 277.073C233.287 277.748 233.516 278.333 233.885 278.828C234.269 279.329 234.743 279.693 235.307 279.922C235.885 280.156 236.483 280.234 237.102 280.157C237.726 280.064 238.295 279.811 238.808 279.398C239.326 278.969 239.739 278.377 240.045 277.621ZM258.899 284.948C258.719 285.393 258.527 285.781 258.324 286.113L249.315 282.463C249.029 283.383 249.058 284.206 249.402 284.933C249.746 285.659 250.319 286.185 251.12 286.509C252.276 286.978 253.301 286.815 254.193 286.019L257.551 287.38C256.715 288.422 255.636 289.125 254.315 289.487C253.001 289.835 251.609 289.711 250.141 289.117C248.955 288.636 247.992 287.944 247.253 287.04C246.536 286.128 246.105 285.082 245.962 283.902C245.833 282.727 246.024 281.51 246.535 280.25C247.051 278.974 247.765 277.96 248.674 277.206C249.584 276.453 250.611 276.005 251.755 275.865C252.9 275.724 254.08 275.9 255.296 276.393C256.467 276.868 257.411 277.543 258.126 278.42C258.856 279.303 259.284 280.313 259.409 281.452C259.556 282.582 259.386 283.747 258.899 284.948ZM256.034 282.752C256.344 281.945 256.313 281.19 255.942 280.487C255.577 279.77 254.986 279.246 254.171 278.915C253.399 278.603 252.651 278.576 251.925 278.834C251.219 279.083 250.639 279.599 250.184 280.382L256.034 282.752ZM276.517 281.184L271.808 291.784L269.184 290.72L273.158 279.823L276.517 281.184ZM268.454 296.484C267.891 296.256 267.493 295.896 267.26 295.405C267.048 294.905 267.048 294.395 267.258 293.876C267.468 293.357 267.82 292.999 268.314 292.802C268.829 292.596 269.368 292.608 269.932 292.836C270.481 293.058 270.861 293.419 271.073 293.92C271.29 294.405 271.294 294.907 271.084 295.426C270.873 295.945 270.518 296.31 270.018 296.522C269.524 296.719 269.003 296.706 268.454 296.484Z" fill="#353535"/>
<path d="M228.04 491.778C226.572 492.33 225.095 492.492 223.608 492.265C222.121 492.038 220.79 491.453 219.615 490.51C218.434 489.553 217.554 488.303 216.973 486.76C216.399 485.233 216.243 483.727 216.506 482.244C216.763 480.745 217.376 479.421 218.344 478.27C219.313 477.119 220.532 476.268 221.999 475.716C223.482 475.158 224.959 474.996 226.431 475.229C227.919 475.456 229.245 476.051 230.411 477.014C231.586 477.957 232.461 479.192 233.035 480.719C233.615 482.262 233.777 483.782 233.52 485.281C233.272 486.758 232.664 488.073 231.695 489.223C230.726 490.374 229.508 491.226 228.04 491.778ZM226.984 488.97C227.928 488.615 228.68 488.092 229.241 487.403C229.796 486.698 230.127 485.873 230.233 484.927C230.339 483.981 230.195 482.984 229.8 481.936C229.406 480.888 228.86 480.05 228.163 479.424C227.46 478.782 226.67 478.387 225.794 478.238C224.917 478.089 224.007 478.192 223.064 478.546C222.12 478.901 221.361 479.426 220.784 480.122C220.223 480.811 219.89 481.629 219.784 482.575C219.673 483.506 219.814 484.495 220.208 485.544C220.603 486.592 221.151 487.437 221.854 488.078C222.557 488.72 223.349 489.123 224.232 489.287C225.123 489.43 226.041 489.324 226.984 488.97ZM241.612 472.083C243.094 471.526 244.47 471.547 245.738 472.147C247.001 472.732 247.948 473.863 248.579 475.54L251.324 482.841L248.179 484.024L245.594 477.15C245.222 476.161 244.691 475.498 243.999 475.16C243.303 474.806 242.527 474.79 241.674 475.111C240.805 475.438 240.217 475.967 239.911 476.697C239.614 477.407 239.651 478.257 240.023 479.245L242.608 486.119L239.463 487.302L234.783 474.857L237.928 473.674L238.511 475.224C238.727 474.527 239.101 473.908 239.633 473.366C240.173 472.804 240.833 472.376 241.612 472.083ZM258.748 472.895C258.275 471.637 258.103 470.428 258.231 469.269C258.374 468.104 258.773 467.099 259.43 466.254C260.101 465.403 260.969 464.777 262.032 464.378C262.961 464.028 263.84 463.911 264.669 464.027C265.514 464.136 266.253 464.397 266.886 464.808L266.219 463.034L269.386 461.842L274.067 474.287L270.9 475.479L270.215 473.659C270.031 474.395 269.652 475.093 269.08 475.753C268.517 476.392 267.771 476.886 266.842 477.235C265.794 477.63 264.734 477.72 263.663 477.508C262.606 477.29 261.641 476.79 260.765 476.008C259.899 475.205 259.227 474.168 258.748 472.895ZM268.559 469.256C268.272 468.492 267.877 467.897 267.375 467.471C266.867 467.029 266.305 466.762 265.689 466.669C265.067 466.561 264.464 466.617 263.88 466.836C263.296 467.056 262.81 467.401 262.423 467.872C262.036 468.342 261.789 468.913 261.683 469.586C261.586 470.238 261.679 470.938 261.96 471.687C262.242 472.435 262.64 473.038 263.153 473.494C263.676 473.93 264.241 474.205 264.848 474.319C265.47 474.427 266.065 474.374 266.634 474.16C267.218 473.94 267.711 473.592 268.114 473.116C268.51 472.625 268.757 472.054 268.853 471.402C268.945 470.735 268.847 470.02 268.559 469.256ZM274.618 458.182C274.064 458.391 273.535 458.393 273.031 458.189C272.537 457.965 272.191 457.591 271.994 457.067C271.797 456.543 271.813 456.041 272.043 455.561C272.282 455.061 272.679 454.707 273.233 454.498C273.787 454.29 274.311 454.298 274.806 454.522C275.31 454.726 275.66 455.089 275.858 455.614C276.055 456.138 276.034 456.65 275.794 457.15C275.565 457.63 275.173 457.974 274.618 458.182ZM276.726 459.082L281.407 471.527L278.262 472.71L273.581 460.265L276.726 459.082ZM282.471 463.972C281.998 462.715 281.825 461.506 281.954 460.347C282.097 459.182 282.504 458.174 283.175 457.323C283.847 456.472 284.714 455.847 285.777 455.447C286.586 455.143 287.425 455.032 288.294 455.116C289.157 455.184 289.916 455.429 290.57 455.849L288.348 449.942L291.538 448.742L297.79 465.365L294.6 466.565L293.907 464.723C293.749 465.483 293.388 466.183 292.825 466.822C292.262 467.461 291.516 467.955 290.588 468.305C289.539 468.699 288.48 468.79 287.408 468.577C286.337 468.365 285.363 467.868 284.488 467.086C283.622 466.283 282.95 465.245 282.471 463.972ZM292.282 460.334C291.995 459.57 291.6 458.975 291.098 458.548C290.59 458.107 290.028 457.84 289.412 457.747C288.79 457.639 288.187 457.694 287.603 457.914C287.019 458.134 286.533 458.479 286.146 458.949C285.759 459.42 285.512 459.991 285.406 460.663C285.309 461.315 285.402 462.016 285.683 462.764C285.965 463.513 286.363 464.116 286.876 464.572C287.399 465.008 287.964 465.283 288.571 465.396C289.193 465.504 289.788 465.451 290.357 465.237C290.941 465.018 291.434 464.67 291.837 464.194C292.233 463.703 292.48 463.131 292.576 462.48C292.668 461.813 292.569 461.098 292.282 460.334ZM311.112 452.944C311.281 453.394 311.403 453.809 311.478 454.191L302.38 457.613C302.793 458.483 303.372 459.069 304.118 459.37C304.864 459.67 305.641 459.669 306.449 459.364C307.618 458.925 308.26 458.111 308.377 456.922L311.769 455.646C311.86 456.979 311.543 458.227 310.817 459.388C310.086 460.535 308.98 461.387 307.497 461.945C306.299 462.396 305.122 462.539 303.966 462.375C302.82 462.191 301.794 461.714 300.889 460.943C299.999 460.167 299.314 459.142 298.836 457.869C298.351 456.581 298.188 455.352 298.346 454.181C298.504 453.011 298.956 451.986 299.703 451.107C300.449 450.228 301.436 449.558 302.664 449.096C303.847 448.651 304.999 448.508 306.119 448.668C307.254 448.822 308.253 449.276 309.117 450.028C309.991 450.759 310.656 451.731 311.112 452.944ZM307.517 453.271C307.197 452.468 306.663 451.934 305.914 451.668C305.159 451.388 304.37 451.403 303.546 451.713C302.767 452.006 302.198 452.493 301.84 453.175C301.49 453.836 301.413 454.609 301.609 455.493L307.517 453.271ZM321.515 438.236L325.237 449.222L322.586 450.219L318.123 439.512L321.515 438.236ZM325.956 454.951C325.387 455.165 324.85 455.17 324.346 454.967C323.852 454.743 323.506 454.368 323.309 453.844C323.111 453.32 323.128 452.818 323.358 452.339C323.597 451.838 324.001 451.481 324.57 451.267C325.124 451.059 325.649 451.067 326.143 451.291C326.632 451.5 326.975 451.867 327.172 452.391C327.369 452.915 327.356 453.425 327.132 453.919C326.902 454.399 326.51 454.743 325.956 454.951Z" fill="#353535"/>
<path d="M319.99 285.156C315.508 283.341 310.59 282.895 305.856 283.876C301.121 284.856 296.784 287.219 293.393 290.664C290.001 294.109 287.707 298.483 286.801 303.232C285.895 307.981 286.418 312.892 288.303 317.344C290.188 321.796 293.351 325.589 297.392 328.243C301.433 330.898 306.17 332.294 311.005 332.256C315.839 332.218 320.554 330.747 324.553 328.03C328.551 325.312 331.654 321.47 333.469 316.989C335.903 310.98 335.85 304.251 333.322 298.281C330.794 292.311 325.998 287.59 319.99 285.156ZM293.912 302.615L290.486 301.227C290.675 300.76 290.793 300.264 290.988 299.783C291.183 299.301 291.373 298.834 291.633 298.395L295.059 299.783L293.912 302.615ZM317.398 287.485C317.865 287.675 318.361 287.793 318.842 287.988C319.324 288.183 319.791 288.372 320.23 288.632L318.842 292.059L316.01 290.912L317.398 287.485ZM304.228 328.14C303.76 327.95 303.264 327.832 302.783 327.637C302.302 327.442 301.834 327.253 301.396 326.993L302.784 323.566L305.616 324.713L304.228 328.14ZM318.756 324.827C318.584 324.918 318.386 324.951 318.194 324.92C318.001 324.89 317.823 324.797 317.688 324.657L306.262 309.892L303.61 291.411C303.525 290.603 304.793 290.078 305.309 290.715L316.363 305.626L319.379 323.941C319.385 324.136 319.327 324.328 319.215 324.488C319.103 324.647 318.942 324.766 318.756 324.827ZM326.566 315.842L327.713 313.009L331.14 314.397C330.951 314.865 330.832 315.361 330.637 315.842C330.442 316.324 330.253 316.791 329.993 317.23L326.566 315.842Z" fill="#353535"/>
<path d="M308.297 309.019L316.495 319.625L314.319 306.48L308.297 309.019Z" fill="#353535"/>
<path d="M198.393 504.015L173.073 514.746L168.21 526.763L153.903 493.003C153.665 492.444 153.66 491.813 153.888 491.249C154.116 490.686 154.559 490.236 155.118 489.999L186.768 476.585C187.328 476.348 187.959 476.343 188.522 476.571C189.086 476.799 189.535 477.242 189.772 477.801L199.609 501.011C199.846 501.571 199.851 502.202 199.623 502.765C199.395 503.328 198.953 503.778 198.393 504.015ZM203.578 486.884L216.097 516.424L204.08 511.561L180.87 521.398C180.311 521.635 179.68 521.64 179.116 521.412C178.553 521.184 178.103 520.742 177.866 520.182L176.972 518.072L206.512 505.553L198.464 486.563L200.574 485.668C201.133 485.431 201.764 485.426 202.328 485.654C202.891 485.882 203.341 486.325 203.578 486.884ZM167.858 489.578C166.022 490.356 164.724 491.404 163.933 492.71C163.203 494.04 163.164 495.475 163.891 497.133L163.939 497.187L168.011 495.461C167.764 494.819 167.749 494.254 167.985 493.755C168.239 493.265 168.66 492.884 169.172 492.68C169.826 492.402 170.464 492.381 171.005 492.6C171.555 492.84 171.956 493.317 172.224 493.95C172.51 494.625 172.604 495.257 172.472 495.886C172.383 496.496 172.118 497.106 171.713 497.676C170.941 498.849 170.471 499.795 170.311 500.535C170.122 501.262 170.265 502.247 170.712 503.302L174.932 501.513C174.655 500.859 174.516 500.296 174.545 499.836C174.574 499.376 174.771 498.844 175.156 498.283C175.891 497.374 176.412 496.431 176.666 495.328C176.92 494.224 176.87 493.225 176.423 492.17C175.744 490.567 174.628 489.521 173.087 489.054C171.566 488.579 169.82 488.746 167.858 489.578ZM171.606 505.412L173.395 509.632L177.615 507.843L175.826 503.623L171.606 505.412ZM186.055 504.267L190.275 502.478L188.486 498.258L184.266 500.047L186.055 504.267ZM178.007 485.277L183.372 497.937L187.592 496.148L182.227 483.488L178.007 485.277Z" fill="#353535"/>
<defs>
<clipPath id="clip0_333_6">
<rect width="55" height="55" fill="white" transform="translate(124.841 110.489) rotate(-22.05)"/>
</clipPath>
</defs>
</svg>
