<svg width="381" height="181" viewBox="0 0 381 181" fill="none" xmlns="http://www.w3.org/2000/svg">
<path d="M98.63 164.729L125.105 114.948L71.2288 115.515L98.63 164.729Z" fill="#C6F7FF"/>
<path d="M55.9349 164.586L43.81 132.421L23.6151 159.643L55.9349 164.586Z" fill="#FFE1F8"/>
<path d="M187.683 66.8006L186.75 32.1738L158.949 50.3445L187.683 66.8006Z" fill="#C6F7FF"/>
<path d="M362.366 112.296L374.212 80.0145L341.936 85.2717L362.366 112.296Z" fill="#C6F7FF"/>
<path d="M132.087 97.7167L134.785 79.7569L118.774 86.2577L132.087 97.7167Z" fill="#C6F7FF"/>
<path d="M224.861 139.744L227.56 121.784L211.549 128.285L224.861 139.744Z" fill="#C6F7FF"/>
<path d="M157.817 127.449L160.515 109.489L144.504 115.99L157.817 127.449Z" fill="#FFE1F8"/>
<path d="M118.44 49.8593L121.138 31.8994L105.128 38.4003L118.44 49.8593Z" fill="#FFE1F8"/>
<path d="M284.749 92.1107L287.447 74.1509L271.436 80.6518L284.749 92.1107Z" fill="#FFE1F8"/>
<path fill-rule="evenodd" clip-rule="evenodd" d="M-0.000566379 0.759409L72.1996 -0.000642173L67.6195 116.057L0.627299 67.8824L-0.000566379 0.759409Z" fill="#C6F7FF"/>
</svg>
