<svg width="381" height="181" viewBox="0 0 381 181" fill="none" xmlns="http://www.w3.org/2000/svg">
<path d="M98.63 164.73L125.105 114.949L71.2288 115.516L98.63 164.73Z" fill="#F3F3F3"/>
<path d="M55.9349 164.586L43.81 132.422L23.6151 159.644L55.9349 164.586Z" fill="#D9D9D9"/>
<path d="M187.683 66.8012L186.75 32.1744L158.949 50.3451L187.683 66.8012Z" fill="#F3F3F3"/>
<path d="M362.366 112.296L374.212 80.0152L341.936 85.2723L362.366 112.296Z" fill="#F3F3F3"/>
<path d="M132.087 97.7173L134.785 79.7575L118.774 86.2583L132.087 97.7173Z" fill="#F3F3F3"/>
<path d="M224.861 139.744L227.56 121.784L211.549 128.285L224.861 139.744Z" fill="#F3F3F3"/>
<path d="M157.817 127.449L160.515 109.489L144.504 115.99L157.817 127.449Z" fill="#D9D9D9"/>
<path d="M118.44 49.8599L121.138 31.9001L105.128 38.4009L118.44 49.8599Z" fill="#D9D9D9"/>
<path d="M284.749 92.1114L287.447 74.1515L271.436 80.6524L284.749 92.1114Z" fill="#D9D9D9"/>
<path fill-rule="evenodd" clip-rule="evenodd" d="M-0.000566379 0.760019L72.1996 -3.18212e-05L67.6195 116.058L0.627299 67.883L-0.000566379 0.760019Z" fill="#F3F3F3"/>
</svg>
