<svg width="96" height="71" viewBox="0 0 96 71" fill="none" xmlns="http://www.w3.org/2000/svg">
<path d="M18.8656 1.05566H0.716309V13.7223H18.8656V1.05566Z" fill="#AED641"/>
<path d="M29.0831 5.19034L28.4056 5.3821C28.363 5.26918 28.3001 5.15945 28.217 5.05291C28.1361 4.94425 28.0253 4.85476 27.8846 4.78445C27.744 4.71413 27.564 4.67898 27.3445 4.67898C27.0441 4.67898 26.7937 4.74822 26.5934 4.88672C26.3953 5.02308 26.2962 5.19673 26.2962 5.40767C26.2962 5.59517 26.3644 5.74325 26.5008 5.85192C26.6371 5.96058 26.8502 6.05114 27.14 6.12358L27.8687 6.30256C28.3076 6.40909 28.6346 6.57209 28.8498 6.79155C29.065 7.00888 29.1726 7.28906 29.1726 7.6321C29.1726 7.91335 29.0917 8.16477 28.9297 8.38636C28.7699 8.60795 28.5462 8.78267 28.2586 8.91051C27.9709 9.03835 27.6364 9.10227 27.255 9.10227C26.7543 9.10227 26.3399 8.99361 26.0118 8.77628C25.6836 8.55895 25.4759 8.24148 25.3885 7.82386L26.1044 7.64489C26.1726 7.90909 26.3015 8.10724 26.4912 8.23935C26.6829 8.37145 26.9333 8.4375 27.2422 8.4375C27.5938 8.4375 27.8729 8.36293 28.0796 8.21378C28.2884 8.0625 28.3928 7.88139 28.3928 7.67045C28.3928 7.5 28.3331 7.35724 28.2138 7.24219C28.0945 7.125 27.9113 7.03764 27.6641 6.98011L26.8459 6.78835C26.3964 6.68182 26.0661 6.51669 25.8552 6.29297C25.6464 6.06712 25.5419 5.7848 25.5419 5.44602C25.5419 5.16903 25.6197 4.92401 25.7753 4.71094C25.9329 4.49787 26.1471 4.33061 26.4177 4.20916C26.6904 4.08771 26.9993 4.02699 27.3445 4.02699C27.8303 4.02699 28.2117 4.13352 28.4887 4.34659C28.7678 4.55966 28.966 4.84091 29.0831 5.19034ZM33.4018 6.9929V4.09091H34.156V9H33.4018V8.16903H33.3506C33.2356 8.41832 33.0566 8.63033 32.8137 8.80504C32.5708 8.97763 32.264 9.06392 31.8932 9.06392C31.5864 9.06392 31.3137 8.9968 31.0751 8.86257C30.8364 8.72621 30.6489 8.52166 30.5126 8.24893C30.3762 7.97408 30.308 7.62784 30.308 7.21023V4.09091H31.0623V7.15909C31.0623 7.51705 31.1624 7.80256 31.3627 8.01562C31.5651 8.22869 31.8229 8.33523 32.1361 8.33523C32.3236 8.33523 32.5143 8.28729 32.7082 8.19141C32.9043 8.09553 33.0683 7.94851 33.2004 7.75036C33.3347 7.5522 33.4018 7.29972 33.4018 6.9929ZM35.5375 10.8409V4.09091H36.2662V4.87074H36.3557C36.4111 4.78551 36.4878 4.67685 36.5858 4.54474C36.6859 4.41051 36.8287 4.29119 37.0141 4.18679C37.2016 4.08026 37.4551 4.02699 37.7747 4.02699C38.1881 4.02699 38.5524 4.13033 38.8678 4.337C39.1831 4.54368 39.4292 4.83665 39.606 5.21591C39.7829 5.59517 39.8713 6.04261 39.8713 6.55824C39.8713 7.07812 39.7829 7.52876 39.606 7.91016C39.4292 8.28942 39.1842 8.58345 38.871 8.79226C38.5578 8.99893 38.1966 9.10227 37.7875 9.10227C37.4722 9.10227 37.2197 9.05007 37.0301 8.94567C36.8404 8.83913 36.6945 8.71875 36.5922 8.58452C36.4899 8.44815 36.4111 8.33523 36.3557 8.24574H36.2918V10.8409H35.5375ZM36.279 6.54545C36.279 6.91619 36.3333 7.24325 36.442 7.52663C36.5506 7.80788 36.7094 8.02841 36.9182 8.18821C37.127 8.34588 37.3827 8.42472 37.6852 8.42472C38.0006 8.42472 38.2637 8.34162 38.4747 8.17543C38.6877 8.0071 38.8475 7.78125 38.9541 7.49787C39.0627 7.21236 39.1171 6.89489 39.1171 6.54545C39.1171 6.20028 39.0638 5.8892 38.9573 5.61222C38.8528 5.3331 38.6941 5.11257 38.481 4.95064C38.2701 4.78658 38.0048 4.70455 37.6852 4.70455C37.3784 4.70455 37.1206 4.78232 36.9118 4.93786C36.703 5.09126 36.5453 5.30646 36.4388 5.58345C36.3323 5.85831 36.279 6.17898 36.279 6.54545ZM41.0219 10.8409V4.09091H41.7506V4.87074H41.8401C41.8955 4.78551 41.9722 4.67685 42.0702 4.54474C42.1703 4.41051 42.3131 4.29119 42.4984 4.18679C42.6859 4.08026 42.9395 4.02699 43.2591 4.02699C43.6725 4.02699 44.0368 4.13033 44.3521 4.337C44.6675 4.54368 44.9136 4.83665 45.0904 5.21591C45.2673 5.59517 45.3557 6.04261 45.3557 6.55824C45.3557 7.07812 45.2673 7.52876 45.0904 7.91016C44.9136 8.28942 44.6685 8.58345 44.3553 8.79226C44.0421 8.99893 43.681 9.10227 43.2719 9.10227C42.9565 9.10227 42.7041 9.05007 42.5144 8.94567C42.3248 8.83913 42.1788 8.71875 42.0766 8.58452C41.9743 8.44815 41.8955 8.33523 41.8401 8.24574H41.7761V10.8409H41.0219ZM41.7634 6.54545C41.7634 6.91619 41.8177 7.24325 41.9264 7.52663C42.035 7.80788 42.1938 8.02841 42.4026 8.18821C42.6114 8.34588 42.8671 8.42472 43.1696 8.42472C43.485 8.42472 43.7481 8.34162 43.959 8.17543C44.1721 8.0071 44.3319 7.78125 44.4384 7.49787C44.5471 7.21236 44.6014 6.89489 44.6014 6.54545C44.6014 6.20028 44.5482 5.8892 44.4416 5.61222C44.3372 5.3331 44.1785 5.11257 43.9654 4.95064C43.7545 4.78658 43.4892 4.70455 43.1696 4.70455C42.8628 4.70455 42.605 4.78232 42.3962 4.93786C42.1874 5.09126 42.0297 5.30646 41.9232 5.58345C41.8166 5.85831 41.7634 6.17898 41.7634 6.54545ZM48.5006 9.10227C48.0574 9.10227 47.6685 8.9968 47.334 8.78587C47.0016 8.57493 46.7417 8.27983 46.5542 7.90057C46.3688 7.52131 46.2761 7.07812 46.2761 6.57102C46.2761 6.05966 46.3688 5.61328 46.5542 5.23189C46.7417 4.8505 47.0016 4.55433 47.334 4.34339C47.6685 4.13246 48.0574 4.02699 48.5006 4.02699C48.9438 4.02699 49.3315 4.13246 49.6639 4.34339C49.9984 4.55433 50.2584 4.8505 50.4438 5.23189C50.6313 5.61328 50.725 6.05966 50.725 6.57102C50.725 7.07812 50.6313 7.52131 50.4438 7.90057C50.2584 8.27983 49.9984 8.57493 49.6639 8.78587C49.3315 8.9968 48.9438 9.10227 48.5006 9.10227ZM48.5006 8.42472C48.8372 8.42472 49.1142 8.33842 49.3315 8.16584C49.5489 7.99325 49.7097 7.76634 49.8141 7.48509C49.9185 7.20384 49.9707 6.89915 49.9707 6.57102C49.9707 6.2429 49.9185 5.93714 49.8141 5.65376C49.7097 5.37038 49.5489 5.14134 49.3315 4.96662C49.1142 4.7919 48.8372 4.70455 48.5006 4.70455C48.1639 4.70455 47.8869 4.7919 47.6696 4.96662C47.4523 5.14134 47.2914 5.37038 47.187 5.65376C47.0826 5.93714 47.0304 6.2429 47.0304 6.57102C47.0304 6.89915 47.0826 7.20384 47.187 7.48509C47.2914 7.76634 47.4523 7.99325 47.6696 8.16584C47.8869 8.33842 48.1639 8.42472 48.5006 8.42472ZM51.8764 9V4.09091H52.6051V4.83239H52.6562C52.7457 4.58949 52.9076 4.3924 53.142 4.24112C53.3764 4.08984 53.6406 4.0142 53.9346 4.0142C53.99 4.0142 54.0593 4.01527 54.1424 4.0174C54.2255 4.01953 54.2883 4.02273 54.3309 4.02699V4.79403C54.3054 4.78764 54.2468 4.77805 54.1551 4.76527C54.0657 4.75035 53.9708 4.7429 53.8707 4.7429C53.6321 4.7429 53.419 4.79297 53.2315 4.89311C53.0461 4.99112 52.8991 5.12749 52.7904 5.3022C52.6839 5.47479 52.6306 5.67187 52.6306 5.89347V9H51.8764ZM57.6676 4.09091V4.73011H55.1235V4.09091H57.6676ZM55.865 2.91477H56.6193V7.59375C56.6193 7.80682 56.6502 7.96662 56.712 8.07315C56.7759 8.17756 56.8568 8.24787 56.9549 8.28409C57.055 8.31818 57.1605 8.33523 57.2713 8.33523C57.3544 8.33523 57.4225 8.33097 57.4758 8.32244C57.5291 8.31179 57.5717 8.30327 57.6036 8.29688L57.7571 8.97443C57.7059 8.99361 57.6345 9.01278 57.5429 9.03196C57.4513 9.05327 57.3352 9.06392 57.1946 9.06392C56.9815 9.06392 56.7727 9.01811 56.5681 8.92649C56.3657 8.83487 56.1974 8.69531 56.0632 8.50781C55.9311 8.32031 55.865 8.08381 55.865 7.7983V2.91477ZM58.8022 9V4.09091H59.5564V9H58.8022ZM59.1857 3.27273C59.0387 3.27273 58.9119 3.22266 58.8054 3.12251C58.7009 3.02237 58.6487 2.90199 58.6487 2.76136C58.6487 2.62074 58.7009 2.50036 58.8054 2.40021C58.9119 2.30007 59.0387 2.25 59.1857 2.25C59.3327 2.25 59.4584 2.30007 59.5628 2.40021C59.6693 2.50036 59.7226 2.62074 59.7226 2.76136C59.7226 2.90199 59.6693 3.02237 59.5628 3.12251C59.4584 3.22266 59.3327 3.27273 59.1857 3.27273ZM64.9521 4.09091L63.1368 9H62.3697L60.5544 4.09091H61.3726L62.7277 8.00284H62.7788L64.1339 4.09091H64.9521ZM67.8301 9.10227C67.3571 9.10227 66.9491 8.99787 66.606 8.78906C66.2651 8.57812 66.002 8.28409 65.8166 7.90696C65.6334 7.5277 65.5418 7.08665 65.5418 6.58381C65.5418 6.08097 65.6334 5.63778 65.8166 5.25426C66.002 4.86861 66.2598 4.56818 66.5901 4.35298C66.9225 4.13565 67.3102 4.02699 67.7534 4.02699C68.0091 4.02699 68.2616 4.0696 68.5109 4.15483C68.7602 4.24006 68.9871 4.37855 69.1916 4.57031C69.3962 4.75994 69.5592 5.01136 69.6806 5.32457C69.8021 5.63778 69.8628 6.02344 69.8628 6.48153V6.80114H66.0787V6.14915H69.0957C69.0957 5.87216 69.0403 5.625 68.9296 5.40767C68.8209 5.19034 68.6653 5.01882 68.4629 4.89311C68.2627 4.7674 68.0261 4.70455 67.7534 4.70455C67.453 4.70455 67.193 4.77912 66.9736 4.92827C66.7563 5.07528 66.589 5.26705 66.4718 5.50355C66.3546 5.74006 66.296 5.99361 66.296 6.2642V6.69886C66.296 7.0696 66.36 7.38388 66.4878 7.64169C66.6178 7.89737 66.7978 8.09233 67.0279 8.22656C67.258 8.35866 67.5254 8.42472 67.8301 8.42472C68.0283 8.42472 68.2073 8.39702 68.3671 8.34162C68.529 8.28409 68.6685 8.19886 68.7857 8.08594C68.9029 7.97088 68.9935 7.82812 69.0574 7.65767L69.7861 7.86222C69.7094 8.10938 69.5805 8.3267 69.3994 8.5142C69.2183 8.69957 68.9945 8.84446 68.7282 8.94886C68.4619 9.05114 68.1625 9.10227 67.8301 9.10227Z" fill="#333333"/>
<path d="M18.8656 20.0557H0.716309V32.7223H18.8656V20.0557Z" fill="#8EAAE3"/>
<path d="M27.0505 28.1151C26.7394 28.1151 26.4571 28.0565 26.2035 27.9393C25.95 27.82 25.7486 27.6484 25.5995 27.4247C25.4503 27.1989 25.3758 26.9261 25.3758 26.6065C25.3758 26.3253 25.4312 26.0973 25.5419 25.9226C25.6527 25.7457 25.8008 25.6072 25.9862 25.5071C26.1716 25.407 26.3761 25.3324 26.5998 25.2834C26.8257 25.2322 27.0526 25.1918 27.2806 25.1619C27.5789 25.1236 27.8207 25.0948 28.0061 25.0756C28.1936 25.0543 28.3299 25.0192 28.4152 24.9702C28.5025 24.9212 28.5462 24.8359 28.5462 24.7145V24.6889C28.5462 24.3736 28.4599 24.1286 28.2873 23.9538C28.1169 23.7791 27.858 23.6918 27.5107 23.6918C27.1506 23.6918 26.8683 23.7706 26.6638 23.9283C26.4592 24.0859 26.3154 24.2543 26.2323 24.4332L25.5164 24.1776C25.6442 23.8793 25.8147 23.647 26.0277 23.4808C26.2429 23.3125 26.4773 23.1953 26.7309 23.1293C26.9866 23.0611 27.238 23.027 27.4851 23.027C27.6428 23.027 27.8239 23.0462 28.0285 23.0845C28.2351 23.1207 28.4343 23.1964 28.6261 23.3114C28.82 23.4265 28.9809 23.6001 29.1087 23.8324C29.2366 24.0646 29.3005 24.3757 29.3005 24.7656V28H28.5462V27.3352H28.5079C28.4567 27.4418 28.3715 27.5558 28.2522 27.6772C28.1329 27.7987 27.9741 27.902 27.776 27.9872C27.5778 28.0724 27.336 28.1151 27.0505 28.1151ZM27.1655 27.4375C27.4638 27.4375 27.7152 27.3789 27.9198 27.2617C28.1265 27.1445 28.282 26.9933 28.3864 26.8079C28.4929 26.6225 28.5462 26.4276 28.5462 26.223V25.5327C28.5142 25.571 28.4439 25.6062 28.3353 25.6381C28.2287 25.668 28.1052 25.6946 27.9645 25.718C27.826 25.7393 27.6907 25.7585 27.5586 25.7756C27.4287 25.7905 27.3232 25.8033 27.2422 25.8139C27.0462 25.8395 26.863 25.881 26.6925 25.9386C26.5242 25.994 26.3878 26.0781 26.2834 26.1911C26.1812 26.3018 26.13 26.4531 26.13 26.6449C26.13 26.907 26.227 27.1051 26.4209 27.2393C26.6169 27.3714 26.8651 27.4375 27.1655 27.4375ZM30.6772 28V23.0909H31.4059V23.858H31.4698C31.572 23.5959 31.7372 23.3924 31.9652 23.2475C32.1931 23.1005 32.4669 23.027 32.7865 23.027C33.1104 23.027 33.3799 23.1005 33.5951 23.2475C33.8125 23.3924 33.9818 23.5959 34.1033 23.858H34.1544C34.2801 23.6044 34.4687 23.4031 34.7201 23.2539C34.9715 23.1026 35.273 23.027 35.6246 23.027C36.0635 23.027 36.4225 23.1644 36.7017 23.4393C36.9808 23.712 37.1203 24.1371 37.1203 24.7145V28H36.3661V24.7145C36.3661 24.3523 36.267 24.0934 36.0688 23.9379C35.8707 23.7823 35.6374 23.7045 35.3689 23.7045C35.0237 23.7045 34.7563 23.8089 34.5667 24.0178C34.3771 24.2244 34.2823 24.4865 34.2823 24.804V28H33.5152V24.6378C33.5152 24.3587 33.4247 24.1339 33.2436 23.9634C33.0625 23.7908 32.8291 23.7045 32.5436 23.7045C32.3476 23.7045 32.1644 23.7567 31.9939 23.8612C31.8256 23.9656 31.6892 24.1104 31.5848 24.2958C31.4826 24.479 31.4314 24.6911 31.4314 24.9318V28H30.6772ZM38.6017 28V21.4545H39.356V23.8707H39.4199C39.4753 23.7855 39.552 23.6768 39.65 23.5447C39.7501 23.4105 39.8929 23.2912 40.0783 23.1868C40.2658 23.0803 40.5193 23.027 40.8389 23.027C41.2523 23.027 41.6166 23.1303 41.932 23.337C42.2473 23.5437 42.4934 23.8366 42.6702 24.2159C42.8471 24.5952 42.9355 25.0426 42.9355 25.5582C42.9355 26.0781 42.8471 26.5288 42.6702 26.9102C42.4934 27.2894 42.2484 27.5835 41.9351 27.7923C41.6219 27.9989 41.2608 28.1023 40.8517 28.1023C40.5364 28.1023 40.2839 28.0501 40.0942 27.9457C39.9046 27.8391 39.7587 27.7187 39.6564 27.5845C39.5541 27.4482 39.4753 27.3352 39.4199 27.2457H39.3304V28H38.6017ZM39.3432 25.5455C39.3432 25.9162 39.3975 26.2433 39.5062 26.5266C39.6148 26.8079 39.7736 27.0284 39.9824 27.1882C40.1912 27.3459 40.4469 27.4247 40.7494 27.4247C41.0648 27.4247 41.3279 27.3416 41.5388 27.1754C41.7519 27.0071 41.9117 26.7812 42.0182 26.4979C42.1269 26.2124 42.1812 25.8949 42.1812 25.5455C42.1812 25.2003 42.128 24.8892 42.0214 24.6122C41.917 24.3331 41.7583 24.1126 41.5452 23.9506C41.3343 23.7866 41.069 23.7045 40.7494 23.7045C40.4426 23.7045 40.1848 23.7823 39.976 23.9379C39.7672 24.0913 39.6095 24.3065 39.503 24.5835C39.3964 24.8583 39.3432 25.179 39.3432 25.5455ZM44.0893 28V23.0909H44.8435V28H44.0893ZM44.4728 22.2727C44.3258 22.2727 44.199 22.2227 44.0925 22.1225C43.9881 22.0224 43.9359 21.902 43.9359 21.7614C43.9359 21.6207 43.9881 21.5004 44.0925 21.4002C44.199 21.3001 44.3258 21.25 44.4728 21.25C44.6198 21.25 44.7455 21.3001 44.8499 21.4002C44.9565 21.5004 45.0097 21.6207 45.0097 21.7614C45.0097 21.902 44.9565 22.0224 44.8499 22.1225C44.7455 22.2227 44.6198 22.2727 44.4728 22.2727ZM48.2065 29.9432C47.8422 29.9432 47.529 29.8963 47.2669 29.8026C47.0048 29.7109 46.7864 29.5895 46.6117 29.4382C46.4391 29.2891 46.3017 29.1293 46.1994 28.9588L46.8003 28.5369C46.8685 28.6264 46.9548 28.7287 47.0592 28.8438C47.1636 28.9609 47.3063 29.0621 47.4874 29.1474C47.6707 29.2347 47.9104 29.2784 48.2065 29.2784C48.6028 29.2784 48.9299 29.1825 49.1877 28.9908C49.4455 28.799 49.5744 28.4986 49.5744 28.0895V27.0923H49.5105C49.4551 27.1818 49.3763 27.2926 49.274 27.4247C49.1739 27.5547 49.029 27.6708 48.8394 27.7731C48.6519 27.8732 48.3983 27.9233 48.0787 27.9233C47.6824 27.9233 47.3266 27.8295 47.0112 27.642C46.698 27.4545 46.4498 27.1818 46.2666 26.8239C46.0854 26.4659 45.9949 26.0312 45.9949 25.5199C45.9949 25.017 46.0833 24.5792 46.2602 24.2063C46.437 23.8313 46.6831 23.5415 46.9984 23.337C47.3138 23.1303 47.6781 23.027 48.0915 23.027C48.4111 23.027 48.6646 23.0803 48.8521 23.1868C49.0418 23.2912 49.1867 23.4105 49.2868 23.5447C49.3891 23.6768 49.4679 23.7855 49.5233 23.8707H49.6V23.0909H50.3287V28.1406C50.3287 28.5625 50.2328 28.9055 50.0411 29.1697C49.8514 29.4361 49.5957 29.631 49.274 29.7546C48.9544 29.8803 48.5986 29.9432 48.2065 29.9432ZM48.181 27.2457C48.4835 27.2457 48.7392 27.1765 48.948 27.038C49.1568 26.8995 49.3156 26.7003 49.4242 26.4403C49.5329 26.1804 49.5872 25.8693 49.5872 25.5071C49.5872 25.1534 49.534 24.8413 49.4274 24.5707C49.3209 24.3001 49.1632 24.0881 48.9544 23.9347C48.7456 23.7812 48.4878 23.7045 48.181 23.7045C47.8614 23.7045 47.595 23.7855 47.382 23.9474C47.171 24.1094 47.0123 24.3267 46.9058 24.5994C46.8014 24.8722 46.7492 25.1747 46.7492 25.5071C46.7492 25.848 46.8024 26.1495 46.909 26.4116C47.0176 26.6715 47.1774 26.8761 47.3884 27.0252C47.6014 27.1722 47.8656 27.2457 48.181 27.2457ZM54.8031 25.9929V23.0909H55.5574V28H54.8031V27.169H54.752C54.6369 27.4183 54.458 27.6303 54.2151 27.805C53.9722 27.9776 53.6653 28.0639 53.2946 28.0639C52.9878 28.0639 52.7151 27.9968 52.4764 27.8626C52.2378 27.7262 52.0503 27.5217 51.9139 27.2489C51.7776 26.9741 51.7094 26.6278 51.7094 26.2102V23.0909H52.4636V26.1591C52.4636 26.517 52.5638 26.8026 52.7641 27.0156C52.9665 27.2287 53.2243 27.3352 53.5375 27.3352C53.725 27.3352 53.9157 27.2873 54.1096 27.1914C54.3056 27.0955 54.4697 26.9485 54.6018 26.7504C54.736 26.5522 54.8031 26.2997 54.8031 25.9929ZM58.9332 28.1023C58.49 28.1023 58.1012 27.9968 57.7666 27.7859C57.4343 27.5749 57.1743 27.2798 56.9868 26.9006C56.8014 26.5213 56.7088 26.0781 56.7088 25.571C56.7088 25.0597 56.8014 24.6133 56.9868 24.2319C57.1743 23.8505 57.4343 23.5543 57.7666 23.3434C58.1012 23.1325 58.49 23.027 58.9332 23.027C59.3764 23.027 59.7642 23.1325 60.0965 23.3434C60.4311 23.5543 60.691 23.8505 60.8764 24.2319C61.0639 24.6133 61.1576 25.0597 61.1576 25.571C61.1576 26.0781 61.0639 26.5213 60.8764 26.9006C60.691 27.2798 60.4311 27.5749 60.0965 27.7859C59.7642 27.9968 59.3764 28.1023 58.9332 28.1023ZM58.9332 27.4247C59.2698 27.4247 59.5468 27.3384 59.7642 27.1658C59.9815 26.9933 60.1424 26.7663 60.2468 26.4851C60.3512 26.2038 60.4034 25.8991 60.4034 25.571C60.4034 25.2429 60.3512 24.9371 60.2468 24.6538C60.1424 24.3704 59.9815 24.1413 59.7642 23.9666C59.5468 23.7919 59.2698 23.7045 58.9332 23.7045C58.5965 23.7045 58.3196 23.7919 58.1022 23.9666C57.8849 24.1413 57.724 24.3704 57.6196 24.6538C57.5152 24.9371 57.463 25.2429 57.463 25.571C57.463 25.8991 57.5152 26.2038 57.6196 26.4851C57.724 26.7663 57.8849 26.9933 58.1022 27.1658C58.3196 27.3384 58.5965 27.4247 58.9332 27.4247ZM65.4027 25.9929V23.0909H66.157V28H65.4027V27.169H65.3516C65.2366 27.4183 65.0576 27.6303 64.8147 27.805C64.5718 27.9776 64.265 28.0639 63.8942 28.0639C63.5874 28.0639 63.3147 27.9968 63.076 27.8626C62.8374 27.7262 62.6499 27.5217 62.5135 27.2489C62.3772 26.9741 62.309 26.6278 62.309 26.2102V23.0909H63.0633V26.1591C63.0633 26.517 63.1634 26.8026 63.3637 27.0156C63.5661 27.2287 63.8239 27.3352 64.1371 27.3352C64.3246 27.3352 64.5153 27.2873 64.7092 27.1914C64.9052 27.0955 65.0693 26.9485 65.2014 26.7504C65.3356 26.5522 65.4027 26.2997 65.4027 25.9929ZM71.0158 24.1903L70.3382 24.3821C70.2956 24.2692 70.2327 24.1594 70.1496 24.0529C70.0687 23.9442 69.9579 23.8548 69.8172 23.7844C69.6766 23.7141 69.4966 23.679 69.2771 23.679C68.9767 23.679 68.7263 23.7482 68.5261 23.8867C68.3279 24.0231 68.2288 24.1967 68.2288 24.4077C68.2288 24.5952 68.297 24.7433 68.4334 24.8519C68.5697 24.9606 68.7828 25.0511 69.0726 25.1236L69.8013 25.3026C70.2402 25.4091 70.5672 25.5721 70.7824 25.7915C70.9976 26.0089 71.1052 26.2891 71.1052 26.6321C71.1052 26.9134 71.0243 27.1648 70.8623 27.3864C70.7025 27.608 70.4788 27.7827 70.1912 27.9105C69.9035 28.0384 69.569 28.1023 69.1876 28.1023C68.6869 28.1023 68.2725 27.9936 67.9444 27.7763C67.6163 27.5589 67.4085 27.2415 67.3212 26.8239L68.0371 26.6449C68.1052 26.9091 68.2342 27.1072 68.4238 27.2393C68.6155 27.3714 68.8659 27.4375 69.1748 27.4375C69.5264 27.4375 69.8055 27.3629 70.0122 27.2138C70.221 27.0625 70.3254 26.8814 70.3254 26.6705C70.3254 26.5 70.2658 26.3572 70.1464 26.2422C70.0271 26.125 69.8439 26.0376 69.5967 25.9801L68.7785 25.7884C68.329 25.6818 67.9987 25.5167 67.7878 25.293C67.579 25.0671 67.4746 24.7848 67.4746 24.446C67.4746 24.169 67.5523 23.924 67.7079 23.7109C67.8655 23.4979 68.0797 23.3306 68.3503 23.2092C68.623 23.0877 68.932 23.027 69.2771 23.027C69.7629 23.027 70.1443 23.1335 70.4213 23.3466C70.7004 23.5597 70.8986 23.8409 71.0158 24.1903Z" fill="#333333"/>
<path d="M18.8656 39.0557H0.716309V51.7223H18.8656V39.0557Z" fill="#FB5C5C"/>
<path d="M27.4596 47.1023C27.0505 47.1023 26.6893 46.9989 26.3761 46.7923C26.0629 46.5835 25.8179 46.2894 25.641 45.9102C25.4642 45.5288 25.3758 45.0781 25.3758 44.5582C25.3758 44.0426 25.4642 43.5952 25.641 43.2159C25.8179 42.8366 26.064 42.5437 26.3793 42.337C26.6946 42.1303 27.059 42.027 27.4723 42.027C27.7919 42.027 28.0444 42.0803 28.2298 42.1868C28.4173 42.2912 28.5601 42.4105 28.6581 42.5447C28.7582 42.6768 28.836 42.7855 28.8914 42.8707H28.9553V40.4545H29.7096V47H28.9809V46.2457H28.8914C28.836 46.3352 28.7571 46.4482 28.6549 46.5845C28.5526 46.7187 28.4066 46.8391 28.217 46.9457C28.0274 47.0501 27.7749 47.1023 27.4596 47.1023ZM27.5618 46.4247C27.8644 46.4247 28.1201 46.3459 28.3289 46.1882C28.5377 46.0284 28.6964 45.8079 28.8051 45.5266C28.9138 45.2433 28.9681 44.9162 28.9681 44.5455C28.9681 44.179 28.9148 43.8583 28.8083 43.5835C28.7017 43.3065 28.5441 43.0913 28.3353 42.9379C28.1265 42.7823 27.8687 42.7045 27.5618 42.7045C27.2422 42.7045 26.9759 42.7866 26.7628 42.9506C26.5519 43.1126 26.3932 43.3331 26.2866 43.6122C26.1822 43.8892 26.13 44.2003 26.13 44.5455C26.13 44.8949 26.1833 45.2124 26.2898 45.4979C26.3985 45.7812 26.5583 46.0071 26.7692 46.1754C26.9823 46.3416 27.2465 46.4247 27.5618 46.4247ZM33.254 47.1023C32.7809 47.1023 32.3729 46.9979 32.0299 46.7891C31.689 46.5781 31.4258 46.2841 31.2405 45.907C31.0572 45.5277 30.9656 45.0866 30.9656 44.5838C30.9656 44.081 31.0572 43.6378 31.2405 43.2543C31.4258 42.8686 31.6836 42.5682 32.0139 42.353C32.3463 42.1357 32.7341 42.027 33.1772 42.027C33.4329 42.027 33.6854 42.0696 33.9347 42.1548C34.184 42.2401 34.4109 42.3786 34.6155 42.5703C34.82 42.7599 34.983 43.0114 35.1044 43.3246C35.2259 43.6378 35.2866 44.0234 35.2866 44.4815V44.8011H31.5025V44.1491H34.5196C34.5196 43.8722 34.4642 43.625 34.3534 43.4077C34.2447 43.1903 34.0892 43.0188 33.8868 42.8931C33.6865 42.7674 33.45 42.7045 33.1772 42.7045C32.8768 42.7045 32.6169 42.7791 32.3974 42.9283C32.1801 43.0753 32.0128 43.267 31.8956 43.5036C31.7785 43.7401 31.7199 43.9936 31.7199 44.2642V44.6989C31.7199 45.0696 31.7838 45.3839 31.9116 45.6417C32.0416 45.8974 32.2216 46.0923 32.4517 46.2266C32.6819 46.3587 32.9493 46.4247 33.254 46.4247C33.4521 46.4247 33.6311 46.397 33.7909 46.3416C33.9528 46.2841 34.0924 46.1989 34.2096 46.0859C34.3267 45.9709 34.4173 45.8281 34.4812 45.6577L35.2099 45.8622C35.1332 46.1094 35.0043 46.3267 34.8232 46.5142C34.6421 46.6996 34.4184 46.8445 34.152 46.9489C33.8857 47.0511 33.5863 47.1023 33.254 47.1023ZM37.1883 44.0469V47H36.434V42.0909H37.1627V42.858H37.2266C37.3417 42.6087 37.5164 42.4084 37.7508 42.2571C37.9851 42.1037 38.2877 42.027 38.6584 42.027C38.9908 42.027 39.2816 42.0952 39.5309 42.2315C39.7802 42.3658 39.9741 42.5703 40.1126 42.8452C40.2511 43.1179 40.3204 43.4631 40.3204 43.8807V47H39.5661V43.9318C39.5661 43.5462 39.466 43.2457 39.2657 43.0305C39.0654 42.8132 38.7905 42.7045 38.4411 42.7045C38.2003 42.7045 37.9851 42.7567 37.7955 42.8612C37.608 42.9656 37.4599 43.1179 37.3513 43.3182C37.2426 43.5185 37.1883 43.7614 37.1883 44.0469ZM42.0087 48.8409C41.8808 48.8409 41.7668 48.8303 41.6667 48.8089C41.5665 48.7898 41.4973 48.7706 41.4589 48.7514L41.6507 48.0866C41.8339 48.1335 41.9959 48.1506 42.1365 48.1378C42.2771 48.125 42.4018 48.0621 42.5104 47.9492C42.6212 47.8384 42.7224 47.6584 42.8141 47.4091L42.9547 47.0256L41.1393 42.0909H41.9575L43.3126 46.0028H43.3638L44.7189 42.0909H45.5371L43.4533 47.7159C43.3595 47.9695 43.2434 48.1793 43.1049 48.3455C42.9664 48.5138 42.8055 48.6385 42.6223 48.7195C42.4412 48.8004 42.2366 48.8409 42.0087 48.8409ZM46.5326 47V42.0909H47.2869V47H46.5326ZM46.9161 41.2727C46.7691 41.2727 46.6424 41.2227 46.5358 41.1225C46.4314 41.0224 46.3792 40.902 46.3792 40.7614C46.3792 40.6207 46.4314 40.5004 46.5358 40.4002C46.6424 40.3001 46.7691 40.25 46.9161 40.25C47.0632 40.25 47.1889 40.3001 47.2933 40.4002C47.3998 40.5004 47.4531 40.6207 47.4531 40.7614C47.4531 40.902 47.3998 41.0224 47.2933 41.1225C47.1889 41.2227 47.0632 41.2727 46.9161 41.2727ZM49.4226 44.0469V47H48.6684V42.0909H49.3971V42.858H49.461C49.576 42.6087 49.7508 42.4084 49.9851 42.2571C50.2195 42.1037 50.5221 42.027 50.8928 42.027C51.2252 42.027 51.516 42.0952 51.7653 42.2315C52.0146 42.3658 52.2085 42.5703 52.347 42.8452C52.4855 43.1179 52.5547 43.4631 52.5547 43.8807V47H51.8005V43.9318C51.8005 43.5462 51.7003 43.2457 51.5 43.0305C51.2998 42.8132 51.0249 42.7045 50.6755 42.7045C50.4347 42.7045 50.2195 42.7567 50.0299 42.8612C49.8424 42.9656 49.6943 43.1179 49.5856 43.3182C49.477 43.5185 49.4226 43.7614 49.4226 44.0469ZM55.9146 48.9432C55.5502 48.9432 55.237 48.8963 54.9749 48.8026C54.7128 48.7109 54.4945 48.5895 54.3197 48.4382C54.1472 48.2891 54.0097 48.1293 53.9074 47.9588L54.5083 47.5369C54.5765 47.6264 54.6628 47.7287 54.7672 47.8438C54.8716 47.9609 55.0143 48.0621 55.1954 48.1474C55.3787 48.2347 55.6184 48.2784 55.9146 48.2784C56.3109 48.2784 56.6379 48.1825 56.8957 47.9908C57.1535 47.799 57.2824 47.4986 57.2824 47.0895V46.0923H57.2185C57.1631 46.1818 57.0843 46.2926 56.982 46.4247C56.8819 46.5547 56.737 46.6708 56.5474 46.7731C56.3599 46.8732 56.1063 46.9233 55.7867 46.9233C55.3904 46.9233 55.0346 46.8295 54.7192 46.642C54.406 46.4545 54.1578 46.1818 53.9746 45.8239C53.7935 45.4659 53.7029 45.0312 53.7029 44.5199C53.7029 44.017 53.7913 43.5792 53.9682 43.2063C54.145 42.8313 54.3911 42.5415 54.7065 42.337C55.0218 42.1303 55.3861 42.027 55.7995 42.027C56.1191 42.027 56.3726 42.0803 56.5601 42.1868C56.7498 42.2912 56.8947 42.4105 56.9948 42.5447C57.0971 42.6768 57.1759 42.7855 57.2313 42.8707H57.308V42.0909H58.0367V47.1406C58.0367 47.5625 57.9408 47.9055 57.7491 48.1697C57.5594 48.4361 57.3038 48.631 56.982 48.7546C56.6624 48.8803 56.3066 48.9432 55.9146 48.9432ZM55.889 46.2457C56.1915 46.2457 56.4472 46.1765 56.656 46.038C56.8648 45.8995 57.0236 45.7003 57.1322 45.4403C57.2409 45.1804 57.2952 44.8693 57.2952 44.5071C57.2952 44.1534 57.242 43.8413 57.1354 43.5707C57.0289 43.3001 56.8712 43.0881 56.6624 42.9347C56.4536 42.7812 56.1958 42.7045 55.889 42.7045C55.5694 42.7045 55.303 42.7855 55.09 42.9474C54.879 43.1094 54.7203 43.3267 54.6138 43.5994C54.5094 43.8722 54.4572 44.1747 54.4572 44.5071C54.4572 44.848 54.5104 45.1495 54.617 45.4116C54.7256 45.6715 54.8854 45.8761 55.0964 46.0252C55.3094 46.1722 55.5736 46.2457 55.889 46.2457Z" fill="#333333"/>
<path d="M18.8656 58.0557H0.716309V70.7223H18.8656V58.0557Z" fill="#CCCCCC"/>
<path d="M28.6996 63.9929V61.0909H29.4539V66H28.6996V65.169H28.6485C28.5334 65.4183 28.3544 65.6303 28.1116 65.805C27.8687 65.9776 27.5618 66.0639 27.1911 66.0639C26.8843 66.0639 26.6116 65.9968 26.3729 65.8626C26.1343 65.7262 25.9468 65.5217 25.8104 65.2489C25.6741 64.9741 25.6059 64.6278 25.6059 64.2102V61.0909H26.3601V64.1591C26.3601 64.517 26.4603 64.8026 26.6606 65.0156C26.863 65.2287 27.1208 65.3352 27.434 65.3352C27.6215 65.3352 27.8122 65.2873 28.0061 65.1914C28.2021 65.0955 28.3662 64.9485 28.4983 64.7504C28.6325 64.5522 28.6996 64.2997 28.6996 63.9929ZM31.5896 63.0469V66H30.8354V61.0909H31.5641V61.858H31.628C31.743 61.6087 31.9177 61.4084 32.1521 61.2571C32.3865 61.1037 32.6891 61.027 33.0598 61.027C33.3922 61.027 33.683 61.0952 33.9323 61.2315C34.1816 61.3658 34.3755 61.5703 34.514 61.8452C34.6525 62.1179 34.7217 62.4631 34.7217 62.8807V66H33.9675V62.9318C33.9675 62.5462 33.8673 62.2457 33.667 62.0305C33.4668 61.8132 33.1919 61.7045 32.8425 61.7045C32.6017 61.7045 32.3865 61.7567 32.1969 61.8612C32.0094 61.9656 31.8613 62.1179 31.7526 62.3182C31.644 62.5185 31.5896 62.7614 31.5896 63.0469ZM36.8031 64.2102L36.7903 63.277H36.9438L39.0915 61.0909H40.0247L37.7364 63.4048H37.6725L36.8031 64.2102ZM36.1 66V59.4545H36.8543V66H36.1ZM39.2193 66L37.3017 63.571L37.8386 63.0469L40.1781 66H39.2193ZM41.7498 63.0469V66H40.9955V61.0909H41.7242V61.858H41.7881C41.9032 61.6087 42.0779 61.4084 42.3123 61.2571C42.5467 61.1037 42.8492 61.027 43.2199 61.027C43.5523 61.027 43.8432 61.0952 44.0925 61.2315C44.3418 61.3658 44.5356 61.5703 44.6741 61.8452C44.8126 62.1179 44.8819 62.4631 44.8819 62.8807V66H44.1276V62.9318C44.1276 62.5462 44.0275 62.2457 43.8272 62.0305C43.6269 61.8132 43.3521 61.7045 43.0026 61.7045C42.7619 61.7045 42.5467 61.7567 42.357 61.8612C42.1695 61.9656 42.0214 62.1179 41.9128 62.3182C41.8041 62.5185 41.7498 62.7614 41.7498 63.0469ZM48.2545 66.1023C47.8113 66.1023 47.4225 65.9968 47.0879 65.7859C46.7555 65.5749 46.4956 65.2798 46.3081 64.9006C46.1227 64.5213 46.0301 64.0781 46.0301 63.571C46.0301 63.0597 46.1227 62.6133 46.3081 62.2319C46.4956 61.8505 46.7555 61.5543 47.0879 61.3434C47.4225 61.1325 47.8113 61.027 48.2545 61.027C48.6977 61.027 49.0854 61.1325 49.4178 61.3434C49.7524 61.5543 50.0123 61.8505 50.1977 62.2319C50.3852 62.6133 50.4789 63.0597 50.4789 63.571C50.4789 64.0781 50.3852 64.5213 50.1977 64.9006C50.0123 65.2798 49.7524 65.5749 49.4178 65.7859C49.0854 65.9968 48.6977 66.1023 48.2545 66.1023ZM48.2545 65.4247C48.5911 65.4247 48.8681 65.3384 49.0854 65.1658C49.3028 64.9933 49.4636 64.7663 49.568 64.4851C49.6725 64.2038 49.7247 63.8991 49.7247 63.571C49.7247 63.2429 49.6725 62.9371 49.568 62.6538C49.4636 62.3704 49.3028 62.1413 49.0854 61.9666C48.8681 61.7919 48.5911 61.7045 48.2545 61.7045C47.9178 61.7045 47.6408 61.7919 47.4235 61.9666C47.2062 62.1413 47.0453 62.3704 46.9409 62.6538C46.8365 62.9371 46.7843 63.2429 46.7843 63.571C46.7843 63.8991 46.8365 64.2038 46.9409 64.4851C47.0453 64.7663 47.2062 64.9933 47.4235 65.1658C47.6408 65.3384 47.9178 65.4247 48.2545 65.4247ZM52.5755 66L51.0798 61.0909H51.8724L52.9335 64.8494H52.9846L54.0329 61.0909H54.8383L55.8738 64.8366H55.9249L56.986 61.0909H57.7786L56.2829 66H55.5414L54.4676 62.2287H54.3908L53.317 66H52.5755ZM59.5301 63.0469V66H58.7758V61.0909H59.5045V61.858H59.5684C59.6835 61.6087 59.8582 61.4084 60.0926 61.2571C60.3269 61.1037 60.6295 61.027 61.0002 61.027C61.3326 61.027 61.6234 61.0952 61.8727 61.2315C62.122 61.3658 62.3159 61.5703 62.4544 61.8452C62.5929 62.1179 62.6622 62.4631 62.6622 62.8807V66H61.9079V62.9318C61.9079 62.5462 61.8078 62.2457 61.6075 62.0305C61.4072 61.8132 61.1323 61.7045 60.7829 61.7045C60.5421 61.7045 60.3269 61.7567 60.1373 61.8612C59.9498 61.9656 59.8017 62.1179 59.693 62.3182C59.5844 62.5185 59.5301 62.7614 59.5301 63.0469Z" fill="#333333"/>
</svg>
