<svg width="467" height="612" viewBox="0 0 467 612" fill="none" xmlns="http://www.w3.org/2000/svg">
<path d="M87.6327 41.4303L91.7164 73.2119L62.1509 60.8578L87.6327 41.4303Z" fill="#D9D9D9"/>
<path d="M416.927 230.866L422.261 272.376L383.645 256.24L416.927 230.866Z" fill="#D9D9D9"/>
<path d="M212.927 426.316L218.26 467.826L179.645 451.69L212.927 426.316Z" fill="#F3F3F3"/>
<path d="M33.1284 3.24021L41.5352 26.9062L16.8365 22.3536L33.1284 3.24021Z" fill="#F3F3F3"/>
<path d="M40.5166 221.628L48.9234 245.294L24.2247 240.742L40.5166 221.628Z" fill="#F3F3F3"/>
<path d="M374.431 398.172L371.764 423.144L351.47 408.348L374.431 398.172Z" fill="#F3F3F3"/>
<path d="M45.1128 313.047L35.5843 348.275L9.84041 322.409L45.1128 313.047Z" fill="#D9D9D9"/>
<path d="M85.1137 585.718L79.551 606.284L64.5217 591.184L85.1137 585.718Z" fill="#D9D9D9"/>
<path d="M453.337 18.5038L441.948 51.1153L419.4 24.9461L453.337 18.5038Z" fill="#F3F3F3"/>
</svg>
