<svg width="362" height="250" viewBox="0 0 362 250" fill="none" xmlns="http://www.w3.org/2000/svg">
<path d="M114.566 38.676L118.741 95.681L67.2859 70.7942L114.566 38.676Z" fill="#F3F3F3"/>
<path d="M73.5374 19.4905L48.1863 43.0982L40.417 9.33968L73.5374 19.4905Z" fill="#D9D9D9"/>
<path d="M158.255 167.541L142.593 198.44L123.666 169.427L158.255 167.541Z" fill="#F3F3F3"/>
<path d="M345.274 205.418L342.875 239.975L314.147 220.619L345.274 205.418Z" fill="#F3F3F3"/>
<path d="M118.092 114.425L113.022 131.891L100.431 118.768L118.092 114.425Z" fill="#F3F3F3"/>
<path d="M225.037 118.384L219.967 135.849L207.376 122.726L225.037 118.384Z" fill="#F3F3F3"/>
<path d="M155.46 99.1727L150.39 116.638L137.799 103.515L155.46 99.1727Z" fill="#D9D9D9"/>
<path d="M84.5886 151.539L79.5188 169.005L66.9281 155.882L84.5886 151.539Z" fill="#D9D9D9"/>
<path d="M262.188 188.561L257.118 206.026L244.527 192.903L262.188 188.561Z" fill="#D9D9D9"/>
<path fill-rule="evenodd" clip-rule="evenodd" d="M0 166.551L18.9556 175.719L64.0537 68.6715L0 78.6896V166.551Z" fill="#F3F3F3"/>
</svg>
