<svg width="375" height="677" viewBox="0 0 375 677" fill="none" xmlns="http://www.w3.org/2000/svg">
<path d="M348.462 60.4189L352.163 91.2365L323.624 79.0326L348.462 60.4189Z" fill="#F3F3F3"/>
<path d="M255.979 442.273L258.156 460.398L241.37 453.22L255.979 442.273Z" fill="#F3F3F3"/>
<path d="M199.641 241.511L194.776 258.958L182.098 246.021L199.641 241.511Z" fill="#F3F3F3"/>
<path d="M31.3139 435.207L12.5147 451.861L7.49197 427.253L31.3139 435.207Z" fill="#D9D9D9"/>
<path d="M241.553 634.778L228.613 646.241L225.156 629.304L241.553 634.778Z" fill="#F3F3F3"/>
<path d="M372.553 662.778L359.613 674.241L356.156 657.304L372.553 662.778Z" fill="#D9D9D9"/>
<path d="M45.7304 14.9336L36.202 50.1614L10.4581 24.2956L45.7304 14.9336Z" fill="#D9D9D9"/>
<path d="M73.1303 635.687L82.1098 664.356L52.792 657.798L73.1303 635.687Z" fill="#D9D9D9"/>
</svg>
