<svg width="180" height="400" viewBox="0 0 180 400" fill="none" xmlns="http://www.w3.org/2000/svg">
<path d="M74.8775 89.6571L59.8518 83.3742L72.8057 73.503L74.8775 89.6571Z" fill="#D9D9D9"/>
<path d="M21.2239 360.777L28.4411 384.832L3.99996 379.055L21.2239 360.777Z" fill="#F3F3F3"/>
<path d="M52.296 328.565L77.1223 348.823L47.1648 360.195L52.296 328.565Z" fill="#D9D9D9"/>
<path d="M111.801 367.542L109.135 392.515L88.841 377.719L111.801 367.542Z" fill="#F3F3F3"/>
<path d="M127.413 271.805L138.2 294.485L113.165 292.487L127.413 271.805Z" fill="#F3F3F3"/>
<path d="M164.73 324.934L155.202 360.161L129.458 334.296L164.73 324.934Z" fill="#D9D9D9"/>
<path d="M35.5702 292.095L39.3968 307.302L24.3143 303.012L35.5702 292.095Z" fill="#D9D9D9"/>
<path d="M89.2199 279.417L85.1258 294.553L74.0641 283.439L89.2199 279.417Z" fill="#D9D9D9"/>
<path d="M135.332 234.736L129.803 220.063L145.275 222.611L135.332 234.736Z" fill="#D9D9D9"/>
<path d="M56.6455 240.191L47.1085 242.899L49.5315 233.286L56.6455 240.191Z" fill="#D9D9D9"/>
<path d="M67.4995 8.34817L57.9625 11.0565L60.3855 1.44306L67.4995 8.34817Z" fill="#D9D9D9"/>
<path d="M123.961 45.3018L114.501 42.3353L121.8 35.6261L123.961 45.3018Z" fill="#F3F3F3"/>
</svg>
